<?xml version="1.0" standalone="no"?><svg xmlns="http://www.w3.org/2000/svg" viewBox="0 0 1440 320"><path fill="#003049" fill-opacity="1" d="M0,224L40,218.7C80,213,160,203,240,181.3C320,160,400,128,480,128C560,128,640,160,720,154.7C800,149,880,107,960,74.7C1040,43,1120,21,1200,16C1280,11,1360,21,1400,26.7L1440,32L1440,320L1400,320C1360,320,1280,320,1200,320C1120,320,1040,320,960,320C880,320,800,320,720,320C640,320,560,320,480,320C400,320,320,320,240,320C160,320,80,320,40,320L0,320Z"></path></svg>